<svg width="17" height="16" viewBox="0 0 17 16" fill="none" xmlns="http://www.w3.org/2000/svg">
<g id="folder-outline">
<path id="Vector" d="M16.3706 6.74113C16.298 6.62737 16.1988 6.53388 16.0818 6.46913C15.9648 6.40439 15.8338 6.37045 15.7007 6.37039H14.8886V5.55558C14.8886 5.12337 14.7201 4.70887 14.4203 4.40325C14.1205 4.09764 13.7138 3.92595 13.2898 3.92595H9.64713L7.72865 1.31854C7.57935 1.11657 7.38617 0.952599 7.16427 0.839502C6.94236 0.726405 6.69777 0.667253 6.44967 0.666687H2.09873C1.67472 0.666687 1.26808 0.83838 0.968257 1.14399C0.668437 1.44961 0.5 1.86411 0.5 2.29632V13.7037C0.5 14.1359 0.668437 14.5504 0.968257 14.856C1.26808 15.1617 1.67472 15.3334 2.09873 15.3334H12.5033C12.6579 15.3334 12.8093 15.2877 12.939 15.2017C13.0686 15.1158 13.1711 14.9934 13.2339 14.8494L16.4313 7.51602C16.4853 7.39192 16.5081 7.25604 16.4975 7.12072C16.4868 6.98539 16.4432 6.85491 16.3706 6.74113ZM6.44967 2.29632L8.60795 5.22965C8.68241 5.33085 8.77896 5.41298 8.88996 5.46955C9.00096 5.52612 9.12335 5.55558 9.24745 5.55558H13.2898V6.37039H4.49682C4.34216 6.37037 4.19081 6.41609 4.06113 6.502C3.93145 6.5879 3.829 6.71032 3.7662 6.85439L2.09873 10.6783V2.29632H6.44967ZM11.9837 13.7037H2.52959L5.01561 8.00002H14.4705L11.9837 13.7037Z" fill="#4A1D96"/>
</g>
</svg>
