<svg width="25" height="24" viewBox="0 0 25 24" fill="none" xmlns="http://www.w3.org/2000/svg">
<path d="M17.2817 23C17.0165 22.9999 16.7622 22.8945 16.5747 22.707L6.57474 12.707C6.38727 12.5195 6.28195 12.2652 6.28195 12C6.28195 11.7348 6.38727 11.4805 6.57474 11.293L16.5747 1.293C16.7633 1.11084 17.0159 1.01004 17.2781 1.01232C17.5403 1.0146 17.7911 1.11977 17.9766 1.30518C18.162 1.49058 18.2671 1.7414 18.2694 2.00359C18.2717 2.26579 18.1709 2.51839 17.9887 2.707L8.69574 12L17.9887 21.293C18.1285 21.4328 18.2238 21.611 18.2623 21.805C18.3009 21.9989 18.2811 22.1999 18.2054 22.3826C18.1297 22.5653 18.0016 22.7215 17.8372 22.8314C17.6728 22.9413 17.4795 23 17.2817 23Z" fill="#7EDCE2"/>
</svg>
