<svg width="25" height="24" viewBox="0 0 25 24" fill="none" xmlns="http://www.w3.org/2000/svg">
<path d="M7.71826 23C7.52051 23 7.32721 22.9413 7.1628 22.8314C6.99839 22.7215 6.87025 22.5653 6.79458 22.3826C6.71891 22.1999 6.69911 21.9989 6.73768 21.805C6.77625 21.611 6.87145 21.4328 7.01126 21.293L16.3043 12L7.01126 2.707C6.8291 2.51839 6.72831 2.26579 6.73059 2.00359C6.73287 1.7414 6.83804 1.49058 7.02344 1.30518C7.20885 1.11977 7.45966 1.0146 7.72186 1.01232C7.98406 1.01004 8.23666 1.11084 8.42526 1.293L18.4253 11.293C18.6127 11.4805 18.718 11.7348 18.718 12C18.718 12.2652 18.6127 12.5195 18.4253 12.707L8.42526 22.707C8.23777 22.8945 7.98346 22.9999 7.71826 23Z" fill="#7EDCE2"/>
</svg>
