<svg width="24" height="24" viewBox="0 0 24 24" fill="none" xmlns="http://www.w3.org/2000/svg">
<g id="settings-wheel 1">
<g id="Group">
<path id="Vector" d="M8 4.70499L12.5 12.5" stroke="#7EDCE2" stroke-linecap="round" stroke-linejoin="round"/>
<path id="Vector_2" d="M8 20.295L12.5 12.5" stroke="#7EDCE2" stroke-linecap="round" stroke-linejoin="round"/>
<path id="Vector_3" d="M21.5 12.5H12.5" stroke="#7EDCE2" stroke-linecap="round" stroke-linejoin="round"/>
<path id="Vector_4" d="M12.5 21.5C17.4706 21.5 21.5 17.4706 21.5 12.5C21.5 7.52944 17.4706 3.5 12.5 3.5C7.52944 3.5 3.5 7.52944 3.5 12.5C3.5 17.4706 7.52944 21.5 12.5 21.5Z" stroke="#7EDCE2" stroke-linecap="round" stroke-linejoin="round"/>
<path id="Vector_5" d="M12.5 1.5V3.5" stroke="#7EDCE2" stroke-linecap="round" stroke-linejoin="round"/>
<path id="Vector_6" d="M7 2.974L8 4.705" stroke="#7EDCE2" stroke-linecap="round" stroke-linejoin="round"/>
<path id="Vector_7" d="M2.974 7L4.706 8" stroke="#7EDCE2" stroke-linecap="round" stroke-linejoin="round"/>
<path id="Vector_8" d="M1.5 12.5H3.5" stroke="#7EDCE2" stroke-linecap="round" stroke-linejoin="round"/>
<path id="Vector_9" d="M2.974 18L4.706 17" stroke="#7EDCE2" stroke-linecap="round" stroke-linejoin="round"/>
<path id="Vector_10" d="M7 22.026L8 20.295" stroke="#7EDCE2" stroke-linecap="round" stroke-linejoin="round"/>
<path id="Vector_11" d="M12.5 23.5V21.5" stroke="#7EDCE2" stroke-linecap="round" stroke-linejoin="round"/>
<path id="Vector_12" d="M18 22.026L17 20.294" stroke="#7EDCE2" stroke-linecap="round" stroke-linejoin="round"/>
<path id="Vector_13" d="M22.026 18L20.294 17" stroke="#7EDCE2" stroke-linecap="round" stroke-linejoin="round"/>
<path id="Vector_14" d="M23.5 12.5H21.5" stroke="#7EDCE2" stroke-linecap="round" stroke-linejoin="round"/>
<path id="Vector_15" d="M22.026 7L20.294 8" stroke="#7EDCE2" stroke-linecap="round" stroke-linejoin="round"/>
<path id="Vector_16" d="M18 2.974L17 4.706" stroke="#7EDCE2" stroke-linecap="round" stroke-linejoin="round"/>
</g>
</g>
</svg>
